<svg xmlns="http://www.w3.org/2000/svg" width="21" height="24" viewBox="0 0 21 24"><g fill="none"><path fill="#797979" d="M14.748 13.358c.036-.12.04-.19.13-.26.287-.019.879-.427 1.293-.507.324-.063.988-.114.988-.114l.146 1.094s-.488.27-.804.36c-.198.056-.612.07-.612.07.268.374.235.823.235.823s.275.14.098.414c-.07.15-.785.296-1.303.805-.052.064-.094.108-.128.154a.914.914 0 0 1-.23.19c-.1.065-.176.092-.12-.056.022-.058.056-.274-.143-.244-.2.03-.112.175-.19.24-.235-.039-.382-.276-.473-.284.014-.032.03-.43 1.428-.703a.673.673 0 0 0 .258-.235.478.478 0 0 0 .071-.33c-.638-.83-.754-1.154-.644-1.417zm-1.196-4.292c-.048.039-.096.08-.134.1-.018.01-.619-.42-.776-.377-.023 0-.005-.071.163-.136.1-.038.33-.05.33-.05s.98-.063 1.458.03c.319.063.364.429.48.69.214.479.805 1.33.805 1.33l-.493.424-.875-.364s.029-.967-.108-1.426a.28.28 0 0 0-.155-.188c-.16-.086-.338-.095-.54-.1-.051-.001-.1.023-.155.067zm2.774-4.131c-.012.02-.015.04.016.06-.014.033-.01.062.028.08-.02.068.018.08.039.1-.016.047-.013.087.047.115-.026.08.016.102.056.127-.015.063.002.11.06.138-.015.069.013.115.067.145-.014.069.018.114.069.15-.006.06-.005.112.071.153-.018.108.038.116.072.151-.024.115.039.114.071.148-.035.109.032.117.069.142-.032.097.413.023.311.004-.002-.044.025-.1-.073-.129 0-.045.032-.105-.078-.137-.01-.046.027-.097-.081-.143-.01-.048.015-.099-.084-.145.01-.086-.033-.117-.085-.145-.001-.062-.02-.114-.084-.142.005-.062-.017-.11-.083-.137.011-.064-.02-.105-.078-.128.001-.048.007-.094-.074-.118.01-.066-.02-.09-.068-.104-.004-.029.007-.066-.06-.088.007-.043-.015-.062-.05-.07 0-.036-.017-.046-.04-.047-.012-.012-.055-.071-.06-.068-.006.003.018.072.022.088z"/><path fill="#CCC" d="M7.575 20.026c-.158.03-.495.311-.315.54.124.155.188.298.189.442 0 .14-.059.28-.183.433-.191-.03-.252-.204-.276-.273-.034.33-.138.547-.299.672-.228.177-.57.174-.992.057.243-.124.397-.212.485-.328.07-.091.066-.195.034-.348a.377.377 0 0 1 .042-.263c-.058.051-.142.105-.22.077 0 0-.327-.808.96-1.31.056-.035.07-.085-.034-.104a.665.665 0 0 0-.522.11c-.204.142-.187.479-.736.641a.367.367 0 0 1-.078-.231.857.857 0 0 1 .052-.252.54.54 0 0 0-.146.22c-.09.307-.24.615-.459.7-.337.133-.698.034-.94-.593.202.076.296.072.394.02.292-.206.337-.602.61-.827-.07.019.801-.663 1.567-.471.125.026.287.073.367.15.234.226.223.046.087-.117-.162-.194-.42-.15-.629-.24-.157-.069.286-.948.554-.923.267.025.32.161.42.283.064.08.137.167.212.25.08-.156.184-.357.244-.46.068-.118.178-.223.224-.259.03-.024 4.42.07 4.454.073.067.005.157.083.188.108a7 7 0 0 1 .309.59c.072-.08.144-.166.206-.243.1-.123.213-.239.31-.293.522-.231.804.637.859.683 0 0 .176.199-.824.49-.137.162-.147.343.087.117 1.173-.678 2.005.34 1.933.32.274.226.318.621.61.828.098.052.192.055.395-.02-.242.626-.603.725-.94.593-.218-.086-.37-.394-.46-.7a.54.54 0 0 0-.145-.22.865.865 0 0 1 .051.251.367.367 0 0 1-.077.231c-.405-.018-.532-.499-.736-.64-.13-.09-.713-.231-.556-.007.093.057.3.133.332.146 1.035.551.628 1.165.628 1.165-.078.027-.163-.026-.22-.077a.377.377 0 0 1 .042.263c-.032.153-.036.256.034.348.088.115.241.203.485.327-.422.117-.765.12-.992-.056-.162-.126-.265-.342-.299-.672-.025.069-.066.247-.277.273-.123-.153-.183-.293-.182-.434 0-.143.065-.287.188-.442.181-.228-.157-.51-.314-.54-.594-.056-.704.493-.619.806.086.312.164.551.164.733.067.716-4.871.716-4.804 0 .034-.357.053-.547.099-.851.04-.175.228-.767-.541-.746z"/><path fill="#8E8E8E" d="M6.2 22.166c-.17.237-.353.35-.561.356-.155.005-.323-.049-.51-.154.043-.083.071-.153.184-.195a.71.71 0 0 1-.297-.08c-.103-.06-.167-.15-.278-.21a.527.527 0 0 0-.203-.062c.108-.205.272-.32.46-.333a.646.646 0 0 1 .375.101 1.156 1.156 0 0 1-.072-.225.316.316 0 0 1 .015-.186c.067 0 .128.008.184.021.148.035.258.11.347.208.106.115.182.26.26.403.048.089.166.117.267.12a.61.61 0 0 0 .336-.121c.086-.062.188-.228.188-.228-.097.337-.371.49-.696.585zm-.761-1.773s-.143.216-.254.303a.669.669 0 0 1-.248.12.376.376 0 0 1-.246-.042c-.07-.04-.142-.105-.158-.184-.014-.07.022-.15.068-.204.047-.055.128-.101.18-.152a.364.364 0 0 0 .094-.174c.022-.106-.068-.253-.068-.253-.187.009-.181.041-.258.064 0 0-.008-.22-.08-.317-.085-.112-.368-.241-.368-.241s.017.112 0 .185c-.018.076-.07.143-.09.219-.02.075-.005.254-.005.254-.05-.115-.117-.147-.194-.183-.476 1.179 1.28 1.78 1.627.605zm9.187 1.768c-.325-.095-.6-.248-.696-.585 0 0 .102.166.188.227a.61.61 0 0 0 .336.121c.101-.002.219-.03.267-.119.077-.142.154-.288.26-.403a.666.666 0 0 1 .347-.208.833.833 0 0 1 .184-.021c.025.057.027.12.015.186a1.156 1.156 0 0 1-.072.225.646.646 0 0 1 .376-.101c.187.013.35.128.459.333a.527.527 0 0 0-.203.061c-.11.062-.175.152-.278.21a.71.71 0 0 1-.297.08c.113.043.14.113.183.196-.186.105-.354.159-.509.154-.208-.006-.391-.119-.56-.356zm.76-1.774c.347 1.175 2.103.575 1.627-.604-.077.036-.144.068-.194.183 0 0 .046-.514-.463-.418-.072.097-.08.318-.08.318-.077-.023-.071-.055-.259-.065 0 0-.196.245.026.428.053.05.134.096.181.152.192.49-.509.6-.838.006z"/><path fill="#8E8E8E" d="M14.115 17.23a.743.743 0 0 0-.153-.139 1.483 1.483 0 0 0-.367-.158c-.037-.01-.073-.011-.109-.016-.155-.018-.303.024-.328.143-.002.01 0 .022.002.034.042.093.076.163.08.234.006.12-.11.246-.226.28-.131.06-.185.067-.337.111-.127.037-.295.086-.421.116-.095.025-.235.033-.337.054-.348.073-.742.11-1.187.124-.08.003-.147.006-.23.006-.092.003-.164 0-.251-.003a6.914 6.914 0 0 1-1.187-.124c-.102-.021-.242-.03-.337-.054-.126-.03-.294-.08-.421-.116-.152-.044-.206-.052-.338-.112-.116-.033-.231-.16-.225-.28.004-.07.038-.14.08-.233.028-.198-.182-.206-.326-.177-.443.09-.583.253-.637.32v.009c.017.039.034.098.053.189-.014.357.324.267.315.507a.586.586 0 0 1-.04.15c-.077.155-.398.675-1.06 1.03-1.513.82-2.376.854-3.114.809-.126-.025-.173-.053-.211-.217-.012-.053-.026-.123-.06-.22-.023-.067-.06-.122-.088-.165a2.243 2.243 0 0 0-.155-.204c-.155-.062-.153-.216-.124-.358.058-.168.408-.328 1.048-.479l.553-.114c.34-.024.447.118.447.201-.001.297-.43.336-.482.324-.076-.019-.11-.108 0-.122.182.043.57-.236.145-.253-.228.002-1.472.276-1.555.528-.002.105.082.146.124.158a5.19 5.19 0 0 0 1.346-.106c1.04-.214 1.921-.706 2.503-1.333.096-.104.334-.314.125-.397-.048-.013-.646.095-.699-.177a.244.244 0 0 1-.007-.195.333.333 0 0 1 .106-.134.582.582 0 0 1 .197-.104c.191-.06 1.2-.404 1.369-.45.168-.047.26-.014.337.027.064.033.1.106.06.289-.005.031-.062.092.038.2.068.078.502.182.766.272.332.08 1.329.21 2.192.155.863-.056 1.01-.113 1.197-.158.264-.09.551-.165.787-.298.076-.077.022-.143.018-.17-.047-.156-.03-.427.366-.354.382.098 1.686.524 1.702.722.083.571-.671.25-.78.417-.072.138.103.249.199.352.508.548 1.244.992 2.115 1.239l-.003-.27c-.031-.07-.123-.425.416-.366.885.246 1.372.397 1.46.453.433.285-.038.592-.138.702-.1.11-.136.332-.148.385-.038.165-.058.19-.184.214-.738.045-1.236.006-3.14-.805-1.004-.52-1.096-1.125-1.1-1.18-.096-.26.288-.195.314-.508.008-.036.017-.122.045-.205zm-2.072-.153zm4.95 1.83c.44.09.88.128 1.316.105.075-.004.093-.02.132-.035a.11.11 0 0 0 .047-.097c-.038-.084-.08-.113-.184-.16l-.405-.147-.935-.255-.153.008c-.082.02-.175.16.009.232.058.012.132.018.221.02.048-.002.08.04.058.081-.009.016-.016.015-.04.036h-.006c-.019.058-.037.133-.06.212z"/><path fill="#797979" d="M10.282 7.799a4.407 4.407 0 1 0 0 8.815 4.407 4.407 0 0 0 0-8.815zm0 .853a3.534 3.534 0 0 1 3.54 3.554 3.534 3.534 0 0 1-3.54 3.554 3.534 3.534 0 0 1-3.539-3.554 3.534 3.534 0 0 1 3.54-3.554z"/><path fill="#CCC" d="M7.444 8.797c-.153-.066-.316-.308-.316-.308l.355-.001c.181 0 .474-.09.583-.231.015-.018.01-.026.012-.047.005-.056-.558-.01-.765.04a4.332 4.332 0 0 0-.531.174 1.25 1.25 0 0 1-.415.098c-.154-.003-.354-.128-.354-.128a1 1 0 0 1 .053-.076.554.554 0 0 1 .143-.134.659.659 0 0 1-.347-.049.688.688 0 0 1-.287-.256.52.52 0 0 1-.083-.22.365.365 0 0 0 .201.036c.188-.03.157-.038.228-.049a.463.463 0 0 1 .207.013.264.264 0 0 1-.163-.158s.124-.137.294-.118c.227.026.427.194.664.107.2-.073.3-.224-.016-.146-.108.027-.271-.013-.393-.053-.199-.065-.311-.198-.47-.21-.24-.018-.515.114-.73-.055-.173-.137-.19-.277-.19-.273.08-.003.113-.1.227-.127-.492-.156-.343-.565-.327-.62.204-.046.317.042.37.094-.125-.333.034-.697-.115-1.022-.059-.094-.138-.144-.351-.18.523-.421.885-.327 1.11-.043.146.183.123.525.048.835a.54.54 0 0 0 .016.264c.021-.1.056-.364.264-.405 0 0 .317.07.316.924 0 .093.062.258.397.356.1.035.113-.015.081-.073-.862-.975-.175-1.615-.175-1.615.081.015.127.104.152.176-.008-.281.25-.279.24-.566-.019-.145-.108-.298-.256-.526.424.11.722.277.83.544.077.19.06.429-.077.732.118-.129.306-.116.376-.098.03.194.012.345-.059.466-.073.125-.2.217-.385.29-.27.106-.119.52.003.624.14.12.33.126.52.094.2-.034.36-.217.653-.362.175-.087.526-.518.59-.561.042.53.052.627-.02 1.084-.14.878-.504 1.78-1.505 1.889-.145 0-.469-.073-.603-.13zm5.156-.14c-1.001-.108-1.365-1.01-1.504-1.889-.073-.456-.063-.553-.02-1.084.064.043.414.475.59.562.291.144.453.328.652.361.19.033.38.026.52-.094.122-.104.273-.517.003-.624-.185-.073-.312-.165-.385-.289-.07-.121-.09-.273-.059-.467a.388.388 0 0 1 .197 0 .47.47 0 0 1 .18.098c-.137-.303-.155-.542-.078-.731.108-.267.407-.435.83-.545-.148.229-.237.382-.255.526-.015.114.04.202.144.319a.37.37 0 0 1 .095.248c.025-.073.071-.162.152-.177 0 0 .169.158.212.288.056.172.07.338.04.516a1.359 1.359 0 0 1-.213.519c-.02.027-.162.196-.214.293-.032.058-.019.108.081.073a.665.665 0 0 0 .397-.357c.106-.225.08-.406.1-.598a.568.568 0 0 1 .115-.245c.052-.063.102-.08.102-.08a.37.37 0 0 1 .182.16.85.85 0 0 1 .081.244.54.54 0 0 0 .016-.263c-.075-.31-.098-.652.048-.836.225-.283.588-.378 1.11.043-.212.036-.292.086-.35.18-.15.325.009.69-.115 1.022a.33.33 0 0 1 .162-.1.332.332 0 0 1 .207.007.577.577 0 0 1-.043.424c-.064.112-.176.151-.284.196.114.027.148.123.227.127 0-.004-.017.136-.19.272-.215.17-.49.038-.73.055-.159.012-.271.146-.47.21-.122.04-.285.08-.393.054-.315-.079-.216.072-.016.145.237.087.438-.08.664-.106.17-.02.294.117.294.117a.264.264 0 0 1-.162.158.463.463 0 0 1 .206-.012c.072.01.04.018.228.049a.365.365 0 0 0 .202-.037.52.52 0 0 1-.084.22.688.688 0 0 1-.286.257.659.659 0 0 1-.348.049.59.59 0 0 1 .196.21s-.2.124-.354.127a1.25 1.25 0 0 1-.415-.098 4.689 4.689 0 0 0-.531-.174c-.207-.05-.77-.095-.764-.04.002.022-.003.03.01.048.11.14.403.23.585.23l.354.001s-.162.243-.316.308c-.134.058-.457.13-.603.13z"/><path fill="#8E8E8E" d="M8.63 4.818c-.09-.33-.056-.587.103-.771.394-.345.623-.223 1.144-.055.216.022.172.01.226 0-.05-.097-.067-.274.122-.305a.472.472 0 0 1 .099 0c.086.006.243.062.138.305 0 .005.009.018.186 0 .145-.024.456-.195.756-.154.833.18.507.986.51.978-.065-.01-.073-.018-.155-.04.126-.288.064-.456-.028-.585-.22-.292-.54-.233-.892-.085-.208.1-.54-.007-.552-.002a.81.81 0 0 1-.471.036c-.53-.148-.726-.248-.984.03-.185.201-.068.603-.067.607.059.165.22.473.222.49.002.026.092.186.225.176.163-.002.425.007.643 0h.904c.211-.02.452-.003.615 0 .133.01.191-.164.239-.261l.146-.405.153.04c-.149.31-.271.868-.376 1.29.367.323.872.635 1.302.324.112-.111.168-.262.075-.505.472.442.13.809-.082.904-.063.028-.204.03-.204.03.073.045.247.17.261.373-.086.098-.23.041-.278.033.05.062.224.26.115.36-.305.03-.53-.168-.647-.237.022.033.052.193.024.228-.193.013-.31-.054-.431-.187-.267-.294-2.428-.024-2.694.27-.121.133-.239.2-.431.186-.04-.059 0-.194.023-.228-.116.07-.277.263-.646.237-.06-.129.064-.298.114-.36-.039.007-.157.056-.228.04-.018-.004-.041-.068-.05-.072-.018-.215.188-.329.261-.374 0 0-.463.069-.513-.462-.009-.153.074-.417.228-.472-.094.244-.037.394.074.505.357.328 1.168-.232 1.273-.574-.118-.423-.274-.938-.452-1.308zm-.648.365s.066-.598-.57-.594c-.486.362-.943.184-1.001.151a.422.422 0 0 1 .254-.327.646.646 0 0 1-.376-.1c-.155-.106-.239-.287-.23-.519a.527.527 0 0 0 .206.048c.428-.087.52-.02.643.037-.077-.093-.066-.168-.06-.26.213.002.386.04.517.12.177.11.28.3.307.589.233.245.395.514.31.855zm-3.566.01c.084.007.158.013.26-.062 0 0-.127.098-.124.223.01.265-.124.395-.124.395s.31.03.439-.025c.11-.047.228-.234.228-.234.055.058.034.083.192.185.288-.165.208-.324.191-.383-.23-.402.34-.839.58-.198.053.13.069.39.069.39.287-1.191-1.534-1.55-1.711-.29zm2.207 2.96c.115-.009.206.002.289.092-.128-.36-.003-.57.27-.752.019.196.196.242.257.406a.416.416 0 0 1 .007.235c.053-.118.135-.19.265-.193.111.097.152.194.137.284-.011.064-.055.14-.08.223-.027.084-.036.176.026.271.06.09.217.14.49.166a1.36 1.36 0 0 1-.665.082c-.444-.045-.927-.248-.993-.622a.612.612 0 0 1-.003-.192zm6.352-4.095c.028-.289.13-.478.307-.588.132-.081.304-.119.518-.121.005.093.016.167-.06.26.381-.129.397.058.848-.084.01.231-.075.413-.23.518a.646.646 0 0 1-.376.1c.26.144.248.266.255.328-.6.155-.863-.067-1.001-.152-.5-.21-.57.595-.57.595-.086-.341.076-.61.309-.856zm1.614.767c.264-.616.76-.177.58.197-.086.213.192.383.192.383.157-.101.136-.127.191-.185 0 0 .117.187.229.235.128.055.438.025.438.025s.007-.1-.192-.227c-.195-.125-.055-.391-.055-.391.101.075.175.069.26.062-.178-1.26-1.999-.9-1.711.29 0 0 .015-.259.068-.39zm-.565 3.059a.612.612 0 0 1-.002.192c-.067.373-.55.577-.994.621a1.362 1.362 0 0 1-.665-.082c.273-.025.43-.075.49-.165a.3.3 0 0 0 .027-.272c-.026-.083-.07-.158-.08-.222-.016-.09.025-.187.136-.284.13.002.212.075.265.192a.416.416 0 0 1 .008-.235c.06-.163.237-.21.257-.405.273.18.397.392.27.751.083-.09.173-.1.288-.091z"/><path fill="#484848" d="M10.398 9.202c.093.036.232.076.399.113.503.109 1.25.131 1.78-.386.259.325.353.518.612.843-.313.337-.367.944-.308 1.62.013.39.02.7.036.983.03.52.068.948.122 1.605.03.588-.523.964-.793 1.1-.417.21-.577.262-1.081.352-.18.014-.683.18-.871.291l-.014-.018c-.078-.118-.569-.227-.847-.286-.445-.073-.66-.129-1.077-.339-.27-.136-.866-.512-.835-1.1.083-1.023.13-1.49.168-2.615.06-.676.005-1.282-.307-1.62.258-.324.343-.507.601-.832.34.359 1.127.468 1.728.384.22-.03.415-.081.555-.164l.007-.002.007.005c.004-.003.001.005.006.002l.112.064z"/><path fill="#797979" d="M9.483 8.964c-.354.166-.5-.058-.852-.122.265-.08.45-.177.593-.31.176-.166.29-.387.416-.702l1.284.004c.126.311.241.532.417.697.144.134.328.231.593.311-.351.064-.498.288-.851.122.04.702-.39.467-.8.884-.41-.417-.84-.182-.8-.884z"/><path fill="#484848" d="M11.642 7.084c0 .388-.112.719-.358.973s-.626.496-1.001.496c-.376 0-.756-.242-1.002-.496s-.358-.585-.358-.973.152-.718.398-.972c.246-.254.586-.412.962-.412.375 0 .715.158.96.412.247.254.399.584.399.972z"/><path fill="#8E8E8E" d="M9.216 1.195c-.02-.123-.045-.313-.084-.427-.014-.096.005-.168.056-.215.124-.084.185-.041.326.024.061.014.05.01.065.008-.011-.029.009-.09.073-.078.024.004.067.026.029.09 0 .002.001.006.052.007.042-.001.136-.04.22-.017.23.08.11.297.11.295-.017-.005-.02-.008-.042-.017.046-.077.034-.127.012-.166-.052-.091-.145-.086-.25-.056-.062.021-.152-.02-.156-.02a.231.231 0 0 1-.135-.006c-.145-.06-.197-.095-.28-.025-.06.05-.04.168-.04.17.01.048.046.141.046.146 0 .007.02.056.057.058.047.005.12.017.183.022l.256.032c.06.001.128.015.175.021.037.007.06-.04.076-.066.014-.025.032-.062.056-.11l.042.017c-.065.102-.132.311-.18.426l.002.003c.019-.036.043-.054.149-.066.052.132.034.244-.088.344-.144.219-.074.339-.074.339s.053.104.22.128c.193.042.375 0 .573.003.1.002.258.024.355.048.155.04.394.212.72.211.245.001.18-.217.062-.255-.053-.042-.847-.185-.966-.474-.12-.24.048-.356-.08-.667.29-.293.264.321.264.321s-.101.315.307.453c.145.058.266.09.552.183.406.181.275.737-.265.626-.066-.01-.224-.048-.224-.048s-.006.024.02.075c.718.765.277 1.28.273 1.307 0 0 .02.09-.012.129-.03.036-.457-.06-.457-.084 0 0-.044-.07-.022-.114.026-.052-.04-.111.134-.111.174 0 .171-.156.173-.199.014-.252-.22-.376-.283-.399-.092-.033-.186-.026-.28-.233-.008-.029-.13-.315-.313-.285-.214.311-.938.238-.938.238.026.053-.284.793-.314.85a.45.45 0 0 1-.14.143c-.04.026-.087.025-.118.056-.082.086-.162.179-.266.197 0 0-.053-.049-.062-.086a.213.213 0 0 1 .007-.117.34.34 0 0 1 .1-.126c.074-.069.065-.049.117-.112a.864.864 0 0 0 .159-.357c.024-.142.024-.31.032-.47-.313-.142-.297-.541-.111-1.123.047-.1.022-.201.017-.194 0 0-.175-.178-.025-.31.097.034.126.026.135.063z"/><path fill="#CCC" d="M10.264 12.47H7.642l.002-.097 2.62-.002V9.848h.07l.001 2.523 2.58-.002.002.1h-2.582v3.262h-.07l-.001-3.262z"/><path fill="#797979" d="M8.041 21.414a3.816 3.816 0 0 0-.019.172c-.067.79.525 1.296.782 1.42.395.19.8.078 1.26.106.197.015.267.231.363.335.096-.102.243-.319.44-.334.235-.037.508.054.736.035.182-.015.482-.104.658-.188.256-.124.634-.574.567-1.364-.005-.06-.02-.126-.027-.182H8.04z"/><path fill="#CCC" d="M18.767 10.03c.177-.212.58-.361.817-.692.356-.626.314-.38.776-.608-.031.273-.464.394-.359.608.096-.032.173-.196.331-.083 0 0-.099.039-.133.125.015.405-.259.459-.259.459.1-.016.17.034.25.083 0 0-.19.003-.25.083-.045.061-.07.359-.673.426-.065.025-.65.046-.384 1.25.063.225.086.352.221.567.031.05.177.325.2.075.054-.584.401-.502.401-.502s-.14.069-.114.16c.133.33-.023.488-.023.488s.207-.049.196-.347a.5.5 0 0 1 .137-.155c-.048.26.174.225.1.529.004.1-.18.184-.219.255-.042.08-.036.146-.036.146s.083-.1.123-.127c.114-.09.229-.002.237-.242.298.197-.082.497-.082.497.116-.066.46-.166.658.162.046.087.178.031.178.031.014 0-.041.095-.186.108-.09.01-.742-.218-.673.462.252.581.364 1.168-.005 1.49.027.024.416.405-.09.654-.193.239-.468.153-.468.153s.396-.28.049-.647c-.747.104-1.105-1.76-1.338-1.992 0 0 .104.446.11.528.026.386-.122.872-.122.872.243.242.388.484.513.726.113.087.257.115.37.215.115.103-.047.355-.076.51-.052.289-.096.54-.122.832-.018.2.02.443-.033.638-.022.08-.071.482-.126.562-.04.057-.13-.142-.13-.142-.031.055-.392-.158-.436.358-.02.097-.132.087-.173.086-.09-.03-.05-.199-.119-.23-.083-.037-.2-.02-.324.006.004-.345.506-.517.623-.675.248-.332.409-1.088.047-1.66-.067-.1-.288-.24-.287-.217.006.156-.22.23-.263.167 0 0-.235.225-.239.13.097-.211-.136-.231-.058-.478a.432.432 0 0 1 .133-.142c-.106-.058-.662-.206-.767-1.75-.067-.656.386-1 .386-1-.148-.216-.275-.512-.951-1-.171-.104-.256-.152-.343-.239 0 0-.336.27-.678-.082-.675-.65-.93-.805-1.02-.858-.187-.08-.124.117-.124.117.044.217.11.395.196.533.13.207.157.203.325.297.168.093.364.566-.225.743 0 0-.368-.105-.4-.723-.073-.277-.26-.727-.367-.975-.046-.108-.063-.503.254-.513.056-.016.333.065.44.081.123.018.25.011.37.035.25.048.75.28.75.28-.005-1.186 1.288-1.209 1.96-1.885.101-.102.259-.278.362-.389.067-.071-.129.028-.218.035-.205.014-.386-.097-.665-.005-.119.04-.189.251-.419.263.004.115-.053.197-.127.234-.128.063-.27.033-.332.194-.08-.156-.031-.271.162-.297.043-.006.08-.052.09-.106-.174.011-.177-.106-.177-.106s.331-.058.36-.195c.019-.033.121-.345-.616-.105-.034.009-.166-.042-.105-.174.018-.044.07-.06.1-.214.03-.155.25-.188.349-.19.181-.134.265-.186.426-.247.05-.09.129-.178.215-.259-.171-.011-.197-.146-.197-.146s.299.011.397-.324c.122-.347.397-.167.502-.12-.002-.154.04-.274.058-.413.167.186.258.404.32.641.124-.531.351-.4.28-.664.145.139.281.39.23.579 0 0 .414-.495.831.145.017.04.062.065.148.073-.073.196-.475 0-.54.197 0 0 .584-.164.769.645.018.043.103.087.103.087-.157.143-.492-.217-.618-.083 0 0 .331.041.408.49.011.068.122.139.122.139s-.11.06-.18.01c-.227-.196-.321-.122-.321-.122a.73.73 0 0 1 .222.314c.081.215-.042.324.062.596 0 0-.13.013-.176-.066-.079-.161-.222-.184-.163-.006.173.495-.354.522-.382.593-.029.074.218.225-.116.124-.049-.037-.108-.144-.108-.144s.058.49-.56.706c-.003.007.378.188.221.66-.013.043.004.079.029.108.05.058-.07.168-.3-.004-.055.158 1.193 3.342 1.294 3.54.09.171.184.4.358.484a.433.433 0 0 0 .388-.027c.455-.215.003-1.118-.074-1.273-.237-.48-.696-1.067-.91-1.562 0 0-.142-.302-.21-.535a2.931 2.931 0 0 1-.105-.622c-.052-.408.197-.843.337-1.022z"/><path fill="#8E8E8E" d="M7.34 8.93c-.197.148-.483.494-.858 1.038-.047-.023-.082.062-.113.043-.18.506-.717.631-.825.613.234.258 1.286.034 1.268-.262-.171-.405.12-.597.463-.235.058-.104.147-.145.233-.142.402.132.412.358.032.677 0 0 .142-.033.184-.012.267.138.066.586-.22.518-.25-.098-.325-.055-.403.045-.077.099-.343.326-.45.294-.093-.027-.468.127-.573-.05-.028-.048-.295.229-.53-.024-.035.121-.222.296-.421.53-.277.473-.944.43-.972.78.066.044.123.127.075.274.161-.014.204-.117.485-.07.728.064.804.78.804.78.313-.062.163.572.163.572s-.18.649-.193.846a.703.703 0 0 0 .07.35c.38.63.848.667 1.213.6.512-.246.628.014.608.075.181.344-1.206.766-1.27.738-.236-.027-.165-.225-.165-.225-.343-.341-.683-.206-.712-.41-.043.098-.236-.005-.292-.244-.053-.135-.24-.211-.43-.308-.162-.41.163-.502.182-.56.043-.135-.06-.256-.111-.376-.048-.113-.047-.305-.047-.305-.133.31-.569.336-.569.336s.35.151.237.502c-.026.089-.043.231-.46.416-.173.155-.09.31-.113.408-.251-.074-.2-.455-.132-.587 0 0-.448.704-.782.779-.094.02.015.33.014.59 0 .247.018.56.16.766.063.09.137.163.21.174.083.011.187.023.268-.051.168-.176.361-.103.404-.014.167.28-.163.366-.163.366.02.042.051.097.054.14-.016.46-.483.213-.483.213s-.122.18-.31.16c-.203.027-.267-.233-.267-.233s-.067.04-.127.064c-.444-.118-.094-.443-.094-.443l-.063-.212s-.178-.12-.253-.272c-.074-.153 0-.311 0-.311-.089.117-.164-.212-.046-.457-.132.082-.355-.178-.132-.334-.104-.03-.225-.217-.06-.325.047-.031.545-.175.658-.606.102-.175.184-.955.184-1.133 0-.174.13-.88.13-.88s-.3.305-.443.73c-.393 1.47-.973 1.49-1.097 1.509-.059.01-.475-.041-.23.298.132.2-.187.196-.255.06-.063.122.176.214.001.23-.175.018-.28-.216-.259-.304.006-.022-.078.082-.147-.005-.004-.072-.053-.113-.047-.209.015-.113.12-.21.336-.218-.195-.182-.252-.352-.233-.538.06-.446.608-.883.689-1.04.035-.068-.013-.129-.053-.166-.044-.04.05-.275.208-.21-.161-.215.003-.386.203-.354-.052-.307.09-.455.333-.448-.052-.25.313-.518.383-.273 0 0 .192-.334.23-.523.047-.231.01-.436-.108-.568-.098-.108-.254-.175-.463-.147-.314.042-.437.315-.23.572a.467.467 0 0 1-.48-.482c.013-.295.37-.552.774-.46-.007-.024-.029-.097-.135-.12-.876-.218-.603-.753-.607-.992-.001-.046-.015-.08-.027-.133 0 0-.156.278-.395.36-.042-.028-.01-.087.008-.168.03-.14-.072-.218-.017-.42.215-.69 1.026-.202 1.032.263.04.229-.009.465.132.631a.554.554 0 0 0 .238.134c-.11-.242-.246-1.271.642-.773-.303.01-.38.267-.273.517.187.436.408.787.396 1.276a1.505 1.505 0 0 1-.178.676c-.361.7-1.48 2.15-1.57 2.244-.194.202-.404.4-.419.62 0 .616.835.407 1.046-.142.084-.152.14-.37.202-.533.059-.154.111-.275.16-.415.165-.475.4-.855.77-1.159.171-.265.329-.57.427-.872.074-.23.148-.534.217-.85a.929.929 0 0 1-.068.079c0-.143.04-.369-.086-.449-.025.206-.12.274-.2.319.038-.327.089-.366-.028-.685-.038-.104-.046-.317.004-.416.05-.1.15-.282.066-.376-.103.118-.132.112-.278.092.29-.324-.02-.35-.182-.655-.044-.082-.042-.174-.057-.31.003.002-.735-.096-.508-.614.137-.076.378-.007.378-.013a5.683 5.683 0 0 0-.704-.564c-.172-.176-.24-.35-.204-.52.127-.355.313-.358.7-.434.144-.061.112-.054.142-.079-.065-.043-.16-.171 0-.245.082-.053.207-.07.226.12.002.003.012.008.117-.065.083-.066.219-.282.422-.36.587-.177.663.443.661.437-.044.016-.051.014-.111.029-.02-.225-.118-.31-.22-.358-.241-.108-.423.041-.592.257-.096.135-.342.184-.348.192a.582.582 0 0 1-.284.186c-.384.092-.543.097-.608.363-.047.19.167.403.17.404.094.084.303.221.31.232.01.015.122.085.203.032.102-.059.27-.144.404-.224l.569-.316c.126-.086.283-.16.387-.215.087-.04.063-.169.059-.247a37.349 37.349 0 0 0-.05-.305l.111-.028c.018.306.067.596.135.895.01.004-.032-.14.227-.305a.558.558 0 0 1 .233.763c.106.086.183.136.228.217.165.303.016.576.446.513-.01.118-.062.199-.158.243.114.069.382-.306.556-.023-.238.011-.134.233-.162.303 0 0 .19-.185.319-.219.418-.151.51.251.512.267.375-.246.843-.134 1.043-.121z"/></g></svg>